<svg xmlns="http://www.w3.org/2000/svg" xmlns:xlink="http://www.w3.org/1999/xlink" version="1.1" id="Layer_1" x="0px" y="0px" viewBox="0 0 148.8 148.8" style="enable-background:new 0 0 148.8 148.8;" xml:space="preserve" width="148.8"  height="148.8" >
<style type="text/css">
	.st0{clip-path:url(#SVGID_2_);fill:#FF7000;}
	.st1{clip-path:url(#SVGID_4_);fill:none;stroke:#FF7000;stroke-width:9.600000e-02;stroke-miterlimit:10;}
	.st2{clip-path:url(#SVGID_6_);fill:#FFFFFF;}
	.st3{clip-path:url(#SVGID_8_);fill:#FFFFFF;}
	.st4{clip-path:url(#SVGID_10_);fill:#FFFFFF;}
	.st5{clip-path:url(#SVGID_12_);fill:#FFFFFF;}
	.st6{clip-path:url(#SVGID_14_);fill:#FFFFFF;}
	.st7{clip-path:url(#SVGID_16_);fill:#FFC82E;}
	.st8{clip-path:url(#SVGID_18_);fill:#FFC82E;}
</style>
<g>
	<g>
		<defs>
			<rect id="SVGID_1_" x="0.2" y="0.6" width="148.3" height="147.6"/>
		</defs>
		<clipPath id="SVGID_2_">
			<use xlink:href="#SVGID_1_" style="overflow:visible;"/>
		</clipPath>
		<path class="st0" d="M147.9,21c0-2.6-1.5-4.8-3.6-5.9c0,0-21.5-13.9-68.4-13.9C28.3,1.2,4.5,15.1,4.5,15.1    c-2.5,1.3-3.6,3.3-3.6,5.6v126.9H148L147.9,21z"/>
	</g>
	<g>
		<defs>
			<rect id="SVGID_3_" x="0.2" y="0.6" width="148.3" height="147.6"/>
		</defs>
		<clipPath id="SVGID_4_">
			<use xlink:href="#SVGID_3_" style="overflow:visible;"/>
		</clipPath>
		<path class="st1" d="M147.9,21c0-2.6-1.5-4.8-3.6-5.9c0,0-21.5-13.9-68.4-13.9C28.3,1.2,4.5,15.1,4.5,15.1    c-2.5,1.3-3.6,3.3-3.6,5.6v126.9H148L147.9,21z"/>
	</g>
	<g>
		<defs>
			<rect id="SVGID_5_" x="0.2" y="0.6" width="148.3" height="147.6"/>
		</defs>
		<clipPath id="SVGID_6_">
			<use xlink:href="#SVGID_5_" style="overflow:visible;"/>
		</clipPath>
		<path class="st2" d="M29.3,92.5h-9.1c-0.2,0-0.3,0.1-0.4,0.3l-1,5.5c0,0.2,0.1,0.3,0.3,0.3h9.1c0.2,0,0.3-0.1,0.4-0.3l1-5.5    C29.6,92.7,29.5,92.5,29.3,92.5"/>
	</g>
	<g>
		<defs>
			<rect id="SVGID_7_" x="0.2" y="0.6" width="148.3" height="147.6"/>
		</defs>
		<clipPath id="SVGID_8_">
			<use xlink:href="#SVGID_7_" style="overflow:visible;"/>
		</clipPath>
		<path class="st3" d="M128.3,101.3h-17.7c-4.4,0-6.8,2.1-7.6,6.9l-2.1,11.9c-0.8,4.8,0.9,6.9,5.2,6.9h17.8c4.4,0,6.8-2.1,7.6-6.9    l2.1-11.9C134.3,103.4,132.6,101.3,128.3,101.3 M124.2,107.2l-2.4,13.9c-0.2,1.4-0.7,1.9-2,1.9h-8.4c-1.3,0-1.5-0.5-1.3-1.9    l2.4-13.9c0.2-1.4,0.7-1.9,2-1.9h8.4C124.2,105.3,124.4,105.8,124.2,107.2"/>
	</g>
	<g>
		<defs>
			<rect id="SVGID_9_" x="0.2" y="0.6" width="148.3" height="147.6"/>
		</defs>
		<clipPath id="SVGID_10_">
			<use xlink:href="#SVGID_9_" style="overflow:visible;"/>
		</clipPath>
		<path class="st4" d="M92.9,101.3H75.2c-4.4,0-6.8,2.1-7.6,6.9l-2.2,11.9c-0.8,4.8,0.9,6.9,5.2,6.9h14.8l-0.6,3.1    c-0.4,2-0.9,2.1-2.4,2.2h-14c-0.2,0-0.3,0.1-0.4,0.3l-2,4.8c0,0.2,0.1,0.3,0.3,0.3h20.6l0,0c0.1,0,0.1,0,0.2,0h0.2l0,0    c3.6-0.1,6.2-3.3,7.1-8.1l3.9-22.4C98.6,103.1,96.9,101.3,92.9,101.3 M88.8,107.2l-2.4,13.9c-0.2,1.4-0.7,1.9-2,1.9H76    c-1.3,0-1.5-0.5-1.3-1.9l2.4-13.9c0.2-1.4,0.7-1.9,2-1.9h8.4C88.8,105.3,89,105.8,88.8,107.2"/>
	</g>
	<g>
		<defs>
			<rect id="SVGID_11_" x="0.2" y="0.6" width="148.3" height="147.6"/>
		</defs>
		<clipPath id="SVGID_12_">
			<use xlink:href="#SVGID_11_" style="overflow:visible;"/>
		</clipPath>
		<path class="st5" d="M57.3,101.3H39.6c-4.1,0-6.5,1.9-7.4,5.9l-3.4,19.4c0,0.2,0.1,0.3,0.3,0.3h8.8c0.2,0,0.3-0.1,0.4-0.3    c0-0.2,0.2-0.7,0.2-0.9l3.2-18.6c0.2-1.4,0.7-1.9,2-1.9h8.4c1.3,0,1.5,0.5,1.3,1.9L50,126.5c0,0.2,0.1,0.3,0.3,0.3h8.8    c0.2,0,0.3-0.1,0.4-0.3c0-0.2,0.2-0.7,0.2-0.9l3.2-17.5C63.4,103.4,61.7,101.3,57.3,101.3"/>
	</g>
	<g>
		<defs>
			<rect id="SVGID_13_" x="0.2" y="0.6" width="148.3" height="147.6"/>
		</defs>
		<clipPath id="SVGID_14_">
			<use xlink:href="#SVGID_13_" style="overflow:visible;"/>
		</clipPath>
		<path class="st6" d="M27.9,101.3h-9c-0.2,0-0.3,0.1-0.4,0.3l-4.4,25c0,0.2,0.1,0.3,0.3,0.3h9c0.2,0,0.3-0.1,0.4-0.3l4.4-25    C28.2,101.4,28.1,101.3,27.9,101.3"/>
	</g>
	<g>
		<defs>
			<rect id="SVGID_15_" x="0.2" y="0.6" width="148.3" height="147.6"/>
		</defs>
		<clipPath id="SVGID_16_">
			<use xlink:href="#SVGID_15_" style="overflow:visible;"/>
		</clipPath>
		<path class="st7" d="M79.7,80.8h54V37.4C98.3,36.8,83.8,62.7,79.7,80.8"/>
	</g>
	<g>
		<defs>
			<rect id="SVGID_17_" x="0.2" y="0.6" width="148.3" height="147.6"/>
		</defs>
		<clipPath id="SVGID_18_">
			<use xlink:href="#SVGID_17_" style="overflow:visible;"/>
		</clipPath>
		<path class="st8" d="M133.7,26.7c-8.1-9.1-33.8-14.2-59.7-14.1c-25.6,0.1-51.2,4.7-59.8,14v54.3C29.4,58.9,66,30,133.7,33.5V26.7z    "/>
	</g>
</g>
</svg>